<?xml version="1.0" encoding="utf-8"?>
<!-- Generator: Adobe Illustrator 26.3.1, SVG Export Plug-In . SVG Version: 6.00 Build 0)  -->
<svg version="1.1" id="Layer_1" xmlns="http://www.w3.org/2000/svg" xmlns:xlink="http://www.w3.org/1999/xlink" x="0px" y="0px"
	 viewBox="0 0 40 40" style="enable-background:new 0 0 40 40;" xml:space="preserve">
<style type="text/css">
	.st0{fill:#2B4EFF;}
</style>
<path class="st0" d="M35,20.7v-2.4c0-4-1.6-7.8-4.4-10.6C27.8,4.9,24,3.3,20,3.3c-4,0-7.8,1.6-10.6,4.4C6.6,10.5,5,14.4,5,18.3v2.4
	c-1.7,0.8-3.2,2.1-4.1,3.8c-0.9,1.7-1.1,3.6-0.7,5.5c0.4,1.9,1.4,3.5,2.9,4.8c1.5,1.2,3.3,1.9,5.2,1.9h3.3V20H8.3v-1.7
	c0-3.1,1.2-6.1,3.4-8.2c2.2-2.2,5.2-3.4,8.2-3.4s6.1,1.2,8.2,3.4c2.2,2.2,3.4,5.2,3.4,8.2V20h-3.3v13.3h-6.7v3.3h10
	c1.9,0,3.8-0.7,5.2-1.9c1.5-1.2,2.5-2.9,2.9-4.8c0.4-1.9,0.1-3.8-0.7-5.5C38.2,22.8,36.7,21.5,35,20.7z M8.3,33.3
	c-1.3,0-2.6-0.5-3.5-1.5c-0.9-0.9-1.5-2.2-1.5-3.5c0-1.3,0.5-2.6,1.5-3.5s2.2-1.5,3.5-1.5V33.3z M31.7,33.3v-10
	c1.3,0,2.6,0.5,3.5,1.5c0.9,0.9,1.5,2.2,1.5,3.5c0,1.3-0.5,2.6-1.5,3.5C34.3,32.8,33,33.3,31.7,33.3z"/>
</svg>
