<?xml version="1.0" encoding="UTF-8"?><svg id="Layer_1" xmlns="http://www.w3.org/2000/svg" xmlns:xlink="http://www.w3.org/1999/xlink" viewBox="0 0 40 40.16"><defs><style>.cls-1{fill:#2b4eff;}.cls-2{clip-path:url(#clippath);}.cls-3{fill:none;}</style><clipPath id="clippath"><rect class="cls-3" y=".15" width="40" height="40"/></clipPath></defs><g class="cls-2"><g><path class="cls-1" d="M20,40.16l-1.17-1c-1.61-1.35-15.65-13.47-15.65-22.35,0-4.46,1.77-8.74,4.93-11.89C11.26,1.77,15.54,0,20,0s8.74,1.77,11.89,4.93c3.15,3.15,4.93,7.43,4.93,11.89,0,8.87-14.04,21-15.64,22.35l-1.17,.99Zm0-36.53c-3.49,0-6.85,1.39-9.32,3.87-2.47,2.47-3.86,5.82-3.87,9.32,0,5.57,8.64,14.48,13.18,18.55,4.54-4.08,13.18-12.99,13.18-18.55,0-3.49-1.39-6.85-3.87-9.32-2.47-2.47-5.82-3.86-9.32-3.87Z"/><path class="cls-1" d="M20,23.49c-1.32,0-2.61-.39-3.7-1.12-1.1-.73-1.95-1.77-2.46-2.99-.5-1.22-.64-2.56-.38-3.85,.26-1.29,.89-2.48,1.82-3.41,.93-.93,2.12-1.57,3.41-1.82,1.29-.26,2.63-.13,3.85,.38,1.22,.5,2.26,1.36,2.99,2.46,.73,1.1,1.12,2.39,1.12,3.7,0,1.77-.7,3.46-1.95,4.71-1.25,1.25-2.95,1.95-4.71,1.95Zm0-10c-.66,0-1.3,.2-1.85,.56-.55,.37-.98,.89-1.23,1.5-.25,.61-.32,1.28-.19,1.93,.13,.65,.45,1.24,.91,1.71,.47,.47,1.06,.78,1.71,.91,.65,.13,1.32,.06,1.93-.19,.61-.25,1.13-.68,1.5-1.23,.37-.55,.56-1.19,.56-1.85,0-.88-.35-1.73-.98-2.36-.63-.63-1.47-.98-2.36-.98Z"/></g></g></svg>