<?xml version="1.0" encoding="UTF-8"?><svg id="Layer_1" xmlns="http://www.w3.org/2000/svg" xmlns:xlink="http://www.w3.org/1999/xlink" viewBox="0 0 40 40"><defs><style>.cls-1{fill:#2b4eff;}.cls-2{clip-path:url(#clippath);}.cls-3{fill:none;}</style><clipPath id="clippath"><rect class="cls-3" width="40" height="40"/></clipPath></defs><g class="cls-2"><path class="cls-1" d="M2.42,11.08c-.56,.16-1.06,.46-1.47,.88-.41,.42-.7,.93-.84,1.49-.15,.56-.14,1.15,.01,1.71,.15,.56,.45,1.07,.86,1.48l5.69,5.68v10.98h10.99l5.73,5.72c.31,.31,.67,.56,1.08,.72,.4,.17,.83,.26,1.27,.26,.29,0,.57-.04,.85-.11,.56-.14,1.08-.43,1.49-.83s.72-.91,.88-1.47L40,0,2.42,11.08Zm.93,3.2L31.73,5.92,10,27.61v-6.67L3.35,14.29Zm22.4,22.37l-6.71-6.69h-6.67L34.09,8.26l-8.34,28.4Z"/></g></svg>